Coordinates
version=1
nRows=9
nColumns=24
inDegrees=yes

Units are S.I. units (second, meters, Newtons, ...)
Angles are in degrees.

endheader
time	pelvis_tilt	pelvis_list	pelvis_rotation	pelvis_tx	pelvis_ty	pelvis_tz	hip_flexion_r	hip_adduction_r	hip_rotation_r	knee_angle_r	ankle_angle_r	subtalar_angle_r	mtp_angle_r	hip_flexion_l	hip_adduction_l	hip_rotation_l	knee_angle_l	ankle_angle_l	subtalar_angle_l	mtp_angle_l	lumbar_extension	lumbar_bending	lumbar_rotation
      5.01000000	      0.48968190	      1.95962908	      3.98637743	      1.60478512	      0.67633462	     -0.29444104	     23.82616409	      1.67665863	      6.34636855	     -2.63076329	      6.49345430	    -11.81854288	      0.00000000	    -20.94597724	      5.38468138	     14.94191621	    -16.75972838	     15.18362946	     -4.34191025	      0.00000000	    -16.48758061	     -1.78147965	    -13.02080732
      5.02000000	      0.44993242	      0.96069679	      3.34210211	      1.62057961	      0.67541995	     -0.29304082	     24.93590105	      3.33745768	      5.52364214	     -6.26446912	      5.75154654	    -12.30229516	      0.00000000	    -19.41739987	      4.33476834	     10.27120527	    -21.29569260	     14.53380682	      0.17058923	      0.00000000	    -16.12072112	     -0.46040391	    -12.03427391
      5.03000000	     -0.08312975	     -0.09269064	      2.73825157	      1.63625642	      0.67403270	     -0.29182126	     26.72665583	      4.93451337	      4.33415267	    -10.35102779	      5.18926225	    -12.21885688	      0.00000000	    -17.06368238	      3.07029909	      6.22104019	    -26.20715631	     12.79344854	      3.30596994	      0.00000000	    -15.16306105	      0.96792599	    -11.30371646
      5.04000000	      0.10424355	     -1.29423598	      1.91989290	      1.65174715	      0.67346636	     -0.29052453	     27.65148764	      6.70759410	      3.29043007	    -14.37442961	      4.80410220	    -11.88840692	      0.00000000	    -15.47371147	      1.53487746	      2.70977374	    -30.99208487	     10.07272819	      5.17826253	      0.00000000	    -15.24554352	      2.61830938	    -10.28111270
      5.05000000	     -0.41792514	     -2.10114254	      1.17848597	      1.66665325	      0.67213795	     -0.28941167	     29.35972692	      7.92529536	      2.22697307	    -18.47575388	      4.97330400	    -10.95422701	      0.00000000	    -12.79674914	      0.35123938	      0.04751974	    -36.04355449	      6.58956557	      5.77312509	      0.00000000	    -14.58926447	      3.77504636	     -9.59399414
      5.06000000	     -0.34822426	     -3.09490574	      0.46819681	      1.68143376	      0.67156576	     -0.28837698	     30.02488371	      9.30457291	      1.56156882	    -21.90338282	      5.45816750	    -10.13312182	      0.00000000	    -10.70903146	     -1.13616177	     -2.22884277	    -40.90633142	      2.91351935	      5.43733370	      0.00000000	    -14.75908018	      5.18407813	     -8.89954853
      5.07000000	     -0.48950519	     -3.87117826	     -0.02506292	      1.69572053	      0.67091554	     -0.28761187	     30.64683445	     10.32148640	      0.85160204	    -24.83104613	      6.53761728	     -9.20451138	      0.00000000	     -8.14693391	     -2.40591984	     -3.76675596	    -45.73106775	     -0.88401019	      3.82270222	      0.00000000	    -14.74494789	      6.31798546	     -8.40653822
      5.08000000	     -0.56207430	     -4.71511085	     -0.37379508	      1.70959786	      0.67051322	     -0.28692235	     30.81322028	     11.35135556	      0.26124139	    -27.05026684	      7.89140912	     -8.48949805	      0.00000000	     -5.48750174	     -3.76095512	     -4.82348695	    -50.43823257	     -4.03358241	      1.59620127	      0.00000000	    -14.88777914	      7.50634477	     -7.94641976
      5.09000000	     -0.82282781	     -5.51957579	     -0.68176847	      1.72309936	      0.67018157	     -0.28627642	     30.85652786	     12.29097110	     -0.35959158	    -28.67488424	      9.52601736	     -7.68157385	      0.00000000	     -2.47713586	     -5.01462981	     -5.45229567	    -54.96116925	     -6.39115721	     -0.97418700	      0.00000000	    -14.81486615	      8.61597614	     -7.42706034
